<?xml version="1.0" encoding="UTF-8" standalone="no"?>
<svg
   viewBox="50 -10 800 640"
   preserveAspectRatio="xMidYMid meet"
   version="1.1"
   id="svg8169"
   sodipodi:docname="kintree_outline.svg"
   inkscape:version="1.1.2 (b8e25be8, 2022-02-05)"
   xmlns:inkscape="http://www.inkscape.org/namespaces/inkscape"
   xmlns:sodipodi="http://sodipodi.sourceforge.net/DTD/sodipodi-0.dtd"
   xmlns="http://www.w3.org/2000/svg"
   xmlns:svg="http://www.w3.org/2000/svg">
  <defs
     id="defs8173" />
  <sodipodi:namedview
     id="namedview8171"
     pagecolor="#ffffff"
     bordercolor="#666666"
     borderopacity="1.0"
     inkscape:pageshadow="2"
     inkscape:pageopacity="0.0"
     inkscape:pagecheckerboard="0"
     showgrid="false"
     inkscape:zoom="1.1734167"
     inkscape:cx="293.58709"
     inkscape:cy="325.97115"
     inkscape:window-width="1296"
     inkscape:window-height="1081"
     inkscape:window-x="0"
     inkscape:window-y="80"
     inkscape:window-maximized="0"
     inkscape:current-layer="svg8169" />
  <g
     id="LEGEND" />
  <path
     id="b_x5F_CaMK1a"
     fill="#d3d3d3"
     d="m 573.38,575.73 c -0.55,-0.46 -0.99,-1.06 -1.4,-1.71 -0.41,-0.65 -0.78,-1.34 -1.23,-2.02 -0.45,-0.67 -0.94,-1.31 -1.48,-1.91 -0.54,-0.6 -1.13,-1.15 -1.76,-1.66 -0.61,-0.5 -1.21,-0.96 -1.58,-1.53 -0.3,-0.45 -0.48,-0.99 -0.66,-1.56 0,0 -0.9,-2.66 -0.92,-2.74 -0.26,-0.7 -0.54,-1.4 -0.81,-2.09 -0.28,-0.73 -0.55,-1.46 -0.84,-2.18 l -1.83,-4.32 c -0.34,-0.77 -3.61,-7.74 -3.92,-8.36 -0.03,-0.06 -2.23,-4.39 -2.23,-4.39 0,0 -5.02,-9.22 -5.28,-9.67 -0.52,-0.92 -6.68,-11.28 -6.71,-11.34 -1.5,-2.45 -51.35,-76.98 -51.8,-77.76 -0.07,-0.12 -0.14,-0.24 -0.21,-0.36 -0.31,-0.54 -1.75,-3.08 -2.08,-3.69 -0.25,-0.46 -1.9,-3.6 -2.17,-4.13 -0.46,-0.9 -1.83,-3.7 -2.06,-4.2 -0.26,-0.54 -3.68,-8.12 -3.86,-8.54 -0.59,-1.37 -5.75,-13.98 -5.76,-14.01 -3.28,-8.17 -6.43,-16.39 -9.26,-24.71 -0.08,-0.23 -4.36,-13.48 -4.54,-14.11 -0.11,-0.38 -3.6,-12.84 -3.79,-13.55 -0.2,-0.79 -2.55,-10.65 -2.72,-11.42 -0.17,-0.76 -1.75,-8.52 -1.84,-9 -0.15,-0.82 -1.71,-10.01 -1.72,-10.08 0,-0.01 -1.43,-10.67 -1.45,-10.9 -0.17,-1.55 -0.32,-3.1 -0.46,-4.65 l -3,0.29 c 0.16,1.57 0.52,4.7 0.52,4.7 0.25,2.09 1.05,7.75 1.05,7.75 0.31,2.07 0.99,6.28 0.99,6.28 0.24,1.44 1.7,9.09 1.72,9.2 0.31,1.51 3.15,13.9 3.15,13.9 0.36,1.46 2.42,9.13 2.42,9.13 0.42,1.48 3.25,10.92 3.25,10.92 0.57,1.82 3.85,11.64 3.86,11.68 0.3,0.86 4.86,13.23 4.86,13.23 0.43,1.12 12.19,29.43 12.19,29.43 0.03,0.08 2.39,5.12 2.48,5.31 0.44,0.9 2.12,4.24 2.12,4.24 0.04,0.08 2.12,3.97 2.23,4.17 0.53,0.95 1.08,1.89 1.62,2.83 l 0.01,0.02 c 0.24,0.41 0.47,0.83 0.71,1.24 0.65,1.1 1.33,2.18 2.02,3.26 0,0 0.37,0.6 0.46,0.74 0.14,0.21 0.29,0.42 0.43,0.63 0.02,0.03 0.04,0.06 0.06,0.09 0.73,1.13 1.48,2.25 2.26,3.36 2.05,3.02 37.35,54.2 37.37,54.21 l 10.45,16.19 c 0.75,1.21 7.01,11.73 7.01,11.73 0.11,0.19 4.73,8.62 4.83,8.81 0.3,0.58 2.06,4.02 2.17,4.24 0.64,1.28 3.42,7.14 3.71,7.79 0.17,0.38 1.41,3.21 1.84,4.25 0.19,0.47 0.37,0.95 0.56,1.42 0.4,1.01 0.81,2.02 1.18,3.04 0.06,0.17 0.51,1.44 0.67,1.9 0.25,0.72 0.45,1.54 0.94,2.28 0.31,0.47 0.69,0.83 1.08,1.15 0.24,0.2 0.48,0.39 0.71,0.58 0.59,0.47 1.15,0.99 1.67,1.55 1.06,1.11 1.81,2.4 2.64,3.78 0.83,1.33 2.11,2.76 3.96,2.92 l 0.06,-0.85 c -0.69,-0.01 -1.34,-0.34 -1.89,-0.8 z" />
  <path
     id="b_x5F_CDKL1"
     fill="#d3d3d3"
     d="m 446.01,309.44 c -0.03,-0.48 -0.03,-0.97 -0.02,-1.45 -10.49,2.16 -28.7,4.59 -45.39,5.45 -15.71,0.73 -31.44,1.61 -47.13,2.68 -15.7,1.07 -31.39,2.28 -47.07,3.73 -7.84,0.73 -15.67,1.52 -23.49,2.45 -3.91,0.46 -7.82,0.97 -11.71,1.54 -3.9,0.6 -7.79,1.19 -11.64,2.22 l 0.23,0.82 c 3.76,-0.97 7.67,-1.52 11.55,-2.07 3.89,-0.53 7.79,-0.99 11.7,-1.4 7.81,-0.83 15.64,-1.54 23.48,-2.18 15.67,-1.28 31.36,-2.01 47.06,-2.89 15.71,-0.82 30.98,-1.71 47.13,-2.44 7.89,-0.32 15.77,-0.88 23.62,-1.73 7.28,-0.79 14.62,-1.74 21.86,-3.08 -0.1,-0.92 -0.18,-1.63 -0.18,-1.65 z" />
  <path
     id="b_x5F_CK1a2"
     fill="#D3D3D3"
     d="M601.57,317.37c-3.43,0.36-6.88,0.58-10.33,0.61c-3.46,0.07-6.88-0.15-10.36-0.3c-3.47-0.14-6.92-0.23-10.33-0.59c-3.41-0.39-6.84-0.93-10.24-1.52c-6.8-1.19-13.55-2.71-20.2-4.54c-6.64-1.83-13.14-4.22-19.75-6.36c-3.3-1.08-6.67-2.07-10.03-2.94c-3.36-0.89-6.72-1.75-10.11-2.54c-6.77-1.6-13.62-2.93-20.56-3.78c-3.47-0.44-6.96-0.69-10.46-0.85c-3.51-0.12-7.02-0.07-10.53,0.15c-1.77,0.18-3.47,0.26-5.3,0.55c-0.49,0.08-1,0.19-1.52,0.33c-0.45,0.12-0.9,0.28-1.36,0.5c-0.97,0.44-2.03,1.29-2.57,2.37c-0.05,0.1-0.1,0.21-0.15,0.32l-0.24,0.73c-0.06,0.19-0.12,0.38-0.17,0.57c-0.89,2.92-1.54,6.15-1.36,9.36l3-0.29c-0.18-2.94,0.41-5.81,1.33-8.77l0.2-0.62c0.24-0.48,0.61-0.84,1.2-1.13c0.57-0.29,1.32-0.48,2.1-0.62c1.6-0.27,3.36-0.39,5.04-0.58c3.4-0.25,6.82-0.36,10.24-0.28c3.42,0.11,6.85,0.31,10.26,0.7c6.83,0.75,13.62,1.98,20.36,3.48c3.37,0.74,6.73,1.55,10.08,2.39c3.36,0.82,6.66,1.75,9.96,2.78c6.6,2.04,13.15,4.36,19.9,6.13c6.73,1.76,13.54,3.2,20.4,4.31c3.44,0.55,6.86,1.04,10.34,1.4c3.48,0.32,6.96,0.37,10.42,0.46l5.2,0.17c1.74,0.04,3.48,0.04,5.22-0.01c3.48-0.08,6.95-0.34,10.41-0.75L601.57,317.37z" />
  <path
     id="b_x5F_EphB2"
     fill="#d3d3d3"
     d="m 454.23,271.76 c -0.86,-6.57 -3.47,-12.59 -6.06,-18.36 -1.3,-2.9 -2.62,-5.76 -3.77,-8.67 -1.15,-2.9 -2.15,-5.88 -3.08,-8.89 -1.86,-6.02 -3.46,-12.18 -5.61,-18.22 -2.13,-6.05 -4.93,-11.88 -8.3,-17.34 -1.68,-2.73 -3.52,-5.37 -5.48,-7.9 -1.03,-1.41 -2.25,-2.64 -3.41,-3.85 v -0.01 c -0.17,-0.17 -0.35,-0.37 -0.55,-0.56 -0.16,-0.16 -0.33,-0.32 -0.52,-0.48 -0.4,-0.35 -1.04,-0.8 -1.65,-0.92 -0.59,-0.13 -1.06,-0.14 -1.52,-0.17 l -8.14,-0.35 c -1.79,-0.08 -3.58,-0.18 -5.34,-0.37 -1.77,-0.2 -3.56,-0.44 -5.33,-0.7 -1.77,-0.27 -3.55,-0.56 -5.31,-0.89 -1.81,-0.34 -3.46,-0.59 -4.73,-1.49 -1.28,-0.91 -2.55,-2.33 -3.86,-3.55 l -3.89,-3.78 c -5.21,-5 -10.12,-10.22 -14.59,-15.86 -4.48,-5.62 -8.61,-11.53 -12.52,-17.58 -1.48,-2.31 -2.93,-4.64 -4.35,-6.98 -2.32,-3.82 -13.07,-22.44 -14.34,-24.64 -7,-12.23 -14.34,-24.35 -23.09,-35.46 -4.34,-5.54 -8.67,-11.16 -13.73,-16.13 -2.52,-2.46 -5.07,-4.95 -8,-7 -1.46,-1.03 -3.03,-1.92 -4.64,-2.67 -1.57,-0.74 -3.19,-1.5 -3.98,-2.91 l -0.75,0.42 c 0.47,0.85 1.2,1.51 1.97,2.02 0.77,0.51 1.59,0.9 2.38,1.28 1.58,0.74 3.07,1.61 4.49,2.62 2.84,2.01 5.34,4.48 7.84,6.95 4.97,4.94 9.23,10.55 13.54,16.12 8.62,11.1 15.86,23.2 22.77,35.46 0.23,0.41 7.4,13.15 7.4,13.15 3.58,6.29 7.22,12.55 11.1,18.67 3.89,6.12 8.02,12.1 12.51,17.81 4.47,5.72 9.46,11.08 14.65,16.12 l 5.79,5.71 c 0.65,0.64 1.33,1.31 2.17,1.89 0.84,0.59 1.81,1 2.75,1.26 0.96,0.26 1.84,0.41 2.73,0.58 1.79,0.34 3.58,0.65 5.38,0.93 1.8,0.28 3.59,0.53 5.41,0.75 1.83,0.21 3.65,0.33 5.47,0.42 l 8.1,0.4 c 0.45,0.03 0.98,0.11 1.27,0.18 0.28,0.06 0.44,0.16 0.73,0.39 0.52,0.47 1.21,1.24 1.81,1.85 V 191 c 0.83,0.88 1.62,1.75 2.3,2.71 1.9,2.49 3.67,5.08 5.3,7.75 3.26,5.35 5.94,11.04 7.98,16.96 2.07,5.92 3.62,12.06 5.45,18.17 0.92,3.05 1.91,6.1 3.08,9.1 1.16,3 2.48,5.9 3.75,8.8 2.55,5.77 4.99,11.58 5.73,17.65 0.76,6.08 -0.01,12.32 -1.36,18.4 l -0.54,2.29 c -0.18,0.75 -0.38,1.47 -0.61,2.21 l -1.47,4.51 c -0.98,3.07 -1.72,6.51 -1.53,9.93 l 3,-0.29 c -0.18,-2.94 0.41,-5.81 1.33,-8.77 l 1.44,-4.54 c 0.23,-0.77 0.45,-1.58 0.64,-2.38 l 0.53,-2.35 c 1.33,-6.31 2.12,-12.86 1.26,-19.39 z" />
  <path
     id="b_x5F_HGK"
     fill="#d3d3d3"
     d="m 591.73,236.54 c -18.75,5.94 -36.9,13.44 -55.19,20.5 -9.13,3.55 -18.29,7.01 -27.6,9.98 -9.3,2.97 -18.77,5.37 -28.38,6.98 -4.8,0.81 -9.63,1.42 -14.48,1.79 -2.43,0.19 -4.83,0.3 -7.28,0.36 l -1.84,0.05 c -0.61,0.02 -1.46,0 -2.31,0.22 -0.03,0.01 -0.05,0.02 -0.08,0.02 -0.4,0.11 -0.84,0.31 -1.22,0.61 -0.92,0.71 -1.37,1.95 -1.64,3.1 0,0.04 -0.01,0.07 -0.01,0.11 -0.23,3.43 -0.8,6.86 -1.55,10.24 l -0.54,2.29 c -0.18,0.75 -0.38,1.47 -0.61,2.21 l -1.47,4.51 c -0.98,3.07 -1.72,6.51 -1.53,9.93 l 3,-0.29 c -0.18,-2.94 0.41,-5.81 1.33,-8.77 l 1.44,-4.54 c 0.23,-0.77 0.45,-1.58 0.64,-2.38 l 0.53,-2.35 c 0.72,-3.36 1.28,-6.79 1.51,-10.27 0.17,-0.81 0.38,-1.62 1.01,-1.83 0.34,-0.1 0.96,-0.12 1.57,-0.14 l 1.84,-0.06 c 2.45,-0.08 4.95,-0.21 7.41,-0.43 4.93,-0.42 9.83,-1.09 14.69,-1.95 9.72,-1.72 19.29,-4.24 28.64,-7.32 9.36,-3.07 18.52,-6.63 27.63,-10.27 18.23,-7.23 36.3,-14.89 54.9,-20.97 18.56,-6.07 37.89,-10.41 57.49,-10.35 v -0.85 c -19.71,-0.24 -39.2,3.95 -57.9,9.87 z" />
  <path
     id="b_x5F_MARK2"
     fill="#d3d3d3"
     d="m 477.23,413.61 c 0,0 -9.15,-23.49 -9.2,-23.64 -0.94,-2.58 -1.85,-5.17 -2.73,-7.77 -0.55,-1.6 -4.66,-14.59 -4.78,-15 0.02,0.06 0.03,0.12 0.05,0.17 -0.67,-2.28 -2.05,-7.22 -2.1,-7.39 -0.24,-0.89 -1.49,-5.63 -1.86,-7.11 -0.58,-2.31 -1.13,-4.63 -1.66,-6.95 -0.11,-0.48 -1.73,-8.16 -1.79,-8.43 -0.36,-1.83 -1.83,-10.3 -1.87,-10.53 -0.07,-0.4 -1.22,-8.45 -1.34,-9.37 -0.14,-1.14 -0.79,-6.76 -0.94,-8.43 l -3,0.29 c 0.14,1.35 0.97,8.23 0.97,8.23 0.09,0.64 1.67,10.89 1.68,10.93 0.11,0.63 2.26,11.64 2.3,11.85 0.02,0.1 3.45,14.47 3.48,14.58 0.9,3.43 1.85,6.84 2.85,10.23 0.09,0.31 3.76,12.08 3.76,12.08 0.63,1.89 1.27,3.78 1.92,5.66 3.63,10.5 7.77,20.8 12.03,31.03 -0.02,0.05 -0.05,0.12 -0.09,0.19 -0.14,0.25 -0.35,0.54 -0.59,0.9 -0.28,0.43 -0.43,0.74 -0.63,1.1 -3.03,5.57 -5.23,11.53 -6.93,17.57 -1.7,6.05 -2.91,12.21 -3.97,18.36 -2.11,12.32 -3.48,24.75 -4.38,37.2 -0.46,6.22 -0.78,12.45 -1.04,18.69 -0.25,6.22 -0.6,12.42 -1.23,18.6 -1.22,12.37 -3.63,24.59 -6.7,36.64 -0.78,3.03 -1.45,6.04 -2.5,8.95 -1.03,2.91 -2.11,5.89 -2.99,8.86 -0.47,1.47 -1,2.9 -1.83,4.13 l -0.05,0.08 -0.12,0.27 c -0.16,0.51 -0.09,0.96 -0.07,1.33 0,0.04 0,0.08 0,0.12 0.01,0.32 0.01,0.66 -0.01,0.98 -0.06,0.74 -0.2,1.47 -0.42,2.2 -0.42,1.46 -1.08,2.85 -1.61,4.36 -0.51,1.5 -0.86,3.18 -0.45,4.84 l 0.83,-0.2 c -0.34,-1.41 -0.04,-2.92 0.46,-4.34 0.51,-1.42 1.21,-2.86 1.66,-4.4 0.23,-0.77 0.4,-1.57 0.47,-2.38 0.03,-0.41 0.05,-0.81 0.03,-1.23 -0.02,-0.4 -0.05,-0.75 0.04,-0.99 0.02,-0.03 0.04,-0.06 0.06,-0.09 0.93,-1.35 1.49,-2.88 1.98,-4.36 0.91,-2.99 1.98,-5.87 3.05,-8.82 1.09,-2.95 1.8,-6.03 2.59,-9.03 3.17,-12.06 5.69,-24.34 7,-36.78 0.69,-6.21 1.08,-12.45 1.37,-18.68 0.3,-6.22 0.67,-12.43 1.17,-18.63 0.98,-12.4 2.44,-24.76 4.62,-36.99 1.1,-6.11 2.34,-12.2 4.06,-18.13 1.71,-5.93 3.9,-11.72 6.87,-17.08 0.11,-0.19 0.32,-0.57 0.32,-0.57 0.04,-0.07 0.08,-0.15 0.13,-0.22 0.02,-0.04 0.05,-0.08 0.07,-0.11 0.01,-0.02 0.39,-0.56 0.39,-0.56 0.07,-0.1 0.14,-0.21 0.21,-0.33 0.04,-0.06 0.08,-0.11 0.11,-0.18 0.03,-0.05 0.06,-0.11 0.09,-0.17 0.01,-0.02 0.02,-0.04 0.03,-0.06 0.01,-0.02 0.01,-0.03 0.02,-0.05 0.02,-0.05 0.04,-0.1 0.06,-0.15 0.03,-0.08 0.06,-0.17 0.09,-0.26 0.01,-0.04 0.03,-0.07 0.04,-0.11 0.01,-0.02 0.01,-0.05 0.01,-0.07 0.01,-0.04 0.02,-0.07 0.03,-0.11 0.02,-0.27 0.01,-0.52 -0.02,-0.72 z" />
  <path
     id="b_x5F_MLK1"
     fill="#d3d3d3"
     d="m 552.97,93.21 c -2.17,1.29 -4.49,2.38 -6.74,3.64 -2.23,1.28 -4.49,2.68 -6.18,4.78 -3.2,4.01 -6.17,8.21 -8.94,12.54 -5.53,8.65 -10.24,17.8 -14.51,27.11 -8.57,18.63 -15.43,37.96 -23.98,56.49 -2.12,4.63 -4.4,9.21 -6.65,13.8 -2.24,4.6 -4.56,9.11 -7.05,13.57 -4.91,8.95 -10.17,17.7 -15.77,26.22 -1.4,2.13 -2.82,4.25 -4.26,6.35 0,0 -5.73,8.13 -5.85,8.3 -0.27,0.37 -0.55,0.78 -0.8,1.24 -0.37,0.65 -0.67,1.44 -0.78,2.27 -0.08,0.68 -0.07,1.32 -0.03,1.88 0.01,0.12 0.05,0.35 0.05,0.35 0.02,0.11 0.03,0.22 0.04,0.33 0.76,6.08 -0.01,12.32 -1.36,18.4 l -0.54,2.29 c -0.18,0.75 -0.38,1.47 -0.61,2.21 l -1.47,4.51 c -0.98,3.07 -1.72,6.51 -1.53,9.93 l 3,-0.29 c -0.18,-2.94 0.41,-5.81 1.33,-8.77 l 1.44,-4.54 c 0.23,-0.77 0.45,-1.58 0.64,-2.38 l 0.53,-2.35 c 1.35,-6.27 2.13,-12.83 1.27,-19.36 -0.04,-0.31 -0.08,-0.62 -0.13,-0.93 -0.08,-0.9 0.02,-1.52 0.45,-2.3 0.24,-0.45 0.6,-0.93 0.97,-1.48 l 5.47,-7.91 c 1.43,-2.13 2.84,-4.27 4.23,-6.43 5.56,-8.63 10.77,-17.48 15.63,-26.51 2.46,-4.49 4.78,-9.1 6.98,-13.72 2.21,-4.61 4.45,-9.22 6.55,-13.91 8.43,-18.72 15.12,-38.09 23.49,-56.72 4.17,-9.32 8.78,-18.45 14.2,-27.09 2.71,-4.32 5.62,-8.51 8.76,-12.52 1.52,-1.93 3.68,-3.32 5.86,-4.59 2.2,-1.27 4.51,-2.37 6.73,-3.71 z" />
  <path
     id="b_x5F_NEK1"
     fill="#D3D3D3"
     d="M460.94,368.53c0,0-1.99-6.89-2.42-8.47c-0.38-1.39-2.72-10.63-2.97-11.69c-0.24-1.02-2.62-12.17-2.62-12.17c-0.19-1.06-1.9-11.08-1.92-11.21c-0.03-0.19-0.93-6.51-0.93-6.53c-0.25-1.95-0.49-3.89-0.7-5.85c-0.12-1.16-0.25-2.31-0.36-3.47l-3,0.29c0,0,0.12,1.05,0.13,1.15v0.03c0.02,0.18,1.52,11.83,1.53,11.91c0.28,1.85,1.73,10.3,1.73,10.3c0.22,1.16,2.61,12.45,2.61,12.46c0.09,0.39,2.61,10.56,2.61,10.56c0.38,1.45,2.54,9.07,2.54,9.09c0.54,1.83,1.1,3.65,1.66,5.47c0,0.02,0,0.05,0,0.07c-0.02,0.08-0.02,0.12-0.1,0.21c-0.07,0.09-0.2,0.21-0.38,0.33l-1.46,0.93c-0.5,0.33-1.01,0.68-1.5,1.07c0,0-5.07,3.79-6.95,5.12c-1.9,1.31-3.83,2.57-5.79,3.78c-7.85,4.87-16.13,9.04-24.58,12.82c-4.23,1.89-8.49,3.71-12.81,5.42c0,0-30.29,11.83-38.87,15.47c-8.57,3.63-17.04,7.57-25.16,12.15c-2.03,1.15-4.04,2.33-6.02,3.56l-2.96,1.84c-0.99,0.61-2,1.25-2.92,2.03c-0.47,0.39-0.89,0.84-1.29,1.22c-0.41,0.39-0.84,0.77-1.28,1.12c-0.89,0.71-1.84,1.34-2.83,1.88s-2.07,0.96-3.13,1.5c-1.05,0.53-2.13,1.24-2.85,2.31l0.71,0.47c0.6-0.88,1.53-1.5,2.54-1.99c1.01-0.5,2.11-0.92,3.17-1.48c1.05-0.56,2.05-1.21,2.99-1.94c0.47-0.37,0.92-0.75,1.36-1.16c0.45-0.42,0.82-0.82,1.25-1.17c0.86-0.72,1.83-1.32,2.82-1.91l2.98-1.82c1.98-1.2,3.99-2.36,6.01-3.48c8.12-4.48,16.57-8.32,25.15-11.85c8.57-3.54,17.31-6.76,25.98-10.11l13.03-4.99c4.34-1.68,8.64-3.47,12.92-5.32c8.54-3.73,16.95-7.85,24.95-12.72c2-1.21,3.97-2.48,5.92-3.78c1.92-1.34,3.8-2.74,5.7-4.11l1.42-1.03c0.42-0.33,0.87-0.64,1.34-0.94l1.55-1.01c0.31-0.2,0.63-0.45,0.93-0.81c0.3-0.35,0.54-0.87,0.61-1.36C461.4,369.76,461.05,369.02,460.94,368.53z" />
  <path
     id="b_x5F_PKCa"
     fill="#d3d3d3"
     d="m 632.06,451.6 c -10.03,-6.32 -20.45,-11.98 -31.05,-17.24 -10.61,-5.27 -21.41,-10.11 -32.26,-14.82 -10.86,-4.7 -21.74,-9.31 -32.49,-14.21 -21.47,-9.77 -42.61,-20.58 -61.35,-34.84 -2.34,-1.78 -4.63,-3.61 -6.88,-5.5 -1.12,-0.94 -2.24,-1.9 -3.34,-2.87 -1.15,-1.01 -2.31,-1.91 -3.32,-2.87 -2.01,-1.79 -3.16,-4.37 -4.41,-7.05 -0.6,-1.31 -1.09,-2.69 -1.5,-4.1 -3.01,-12.83 -5.21,-25.83 -6.44,-38.94 l -3,0.29 c 0.15,1.54 0.33,3.08 0.51,4.62 1.01,8.45 2.41,16.85 4.15,25.17 0.37,1.79 0.75,3.57 1.14,5.35 0.23,1.04 0.48,2.09 0.76,3.13 0.52,1.89 1.15,3.77 2,5.59 0.64,1.34 1.28,2.71 2.07,4.06 0.5,0.87 1.12,1.76 1.81,2.55 0.37,0.43 0.76,0.83 1.17,1.19 1.15,1.07 2.33,1.97 3.41,2.9 1.12,0.98 2.26,1.94 3.41,2.89 2.3,1.89 4.64,3.73 7.02,5.52 19.09,14.28 40.45,24.97 62.06,34.58 10.82,4.82 21.74,9.36 32.62,13.98 10.87,4.64 21.68,9.4 32.3,14.58 10.61,5.18 21.04,10.75 31.06,16.98 10.02,6.23 19.65,13.11 28.46,20.96 l 0.57,-0.64 c -8.82,-7.96 -18.46,-14.94 -28.48,-21.26 z" />
  <text
     fill="#000000"
     font-family="Helvetica"
     font-weight="700"
     letter-spacing="0.035"
     font-size="13px"
     id="text40"
     x="669.95648"
     y="225.91324">STE</text>
  <text
     fill="#000000"
     font-family="Helvetica"
     font-weight="700"
     letter-spacing="0.035"
     font-size="13px"
     id="text42"
     x="621.30048"
     y="322.55099">CK1</text>
  <text
     fill="#000000"
     font-family="Helvetica"
     font-weight="700"
     letter-spacing="0.035"
     font-size="13px"
     id="text44"
     x="667.14532"
     y="489.22775">AGC</text>
  <text
     fill="#000000"
     font-family="Helvetica"
     font-weight="700"
     letter-spacing="0.035"
     font-size="13px"
     id="text46"
     x="488.74701"
     y="600.94531">CAMK</text>
  <text
     fill="#000000"
     font-family="Helvetica"
     font-weight="700"
     letter-spacing="0.035"
     font-size="13px"
     id="text48"
     x="205.34233"
     y="329.93991">CMGC</text>
  <text
     fill="#000000"
     font-family="Helvetica"
     font-weight="700"
     letter-spacing="0.035"
     font-size="13px"
     id="text50"
     x="248.61343"
     y="39.928146">TK</text>
  <text
     fill="#000000"
     font-family="Helvetica"
     font-weight="700"
     letter-spacing="0.035"
     font-size="13px"
     id="text52"
     x="556.71552"
     y="78.780235">TKL</text>
  <text
     xml:space="preserve"
     style="font-style:normal;font-variant:normal;font-weight:bold;font-stretch:normal;font-size:13px;line-height:1.25;font-family:Helvetica;-inkscape-font-specification:'Helvetica, Bold';font-variant-ligatures:normal;font-variant-caps:normal;font-variant-numeric:normal;font-variant-east-asian:normal;fill:#000000;fill-opacity:1;stroke:none"
     x="263.05307"
     y="455.30783"
     id="text2070"><tspan
       sodipodi:role="line"
       id="tspan2068"
       x="263.05307"
       y="455.30783"
       style="font-style:normal;font-variant:normal;font-weight:bold;font-stretch:normal;font-size:13px;font-family:Helvetica;-inkscape-font-specification:'Helvetica, Bold';font-variant-ligatures:normal;font-variant-caps:normal;font-variant-numeric:normal;font-variant-east-asian:normal">OTHER</tspan></text>
</svg>
